<?xml version="1.0" standalone="no"?>
<!DOCTYPE svg PUBLIC "-//W3C//DTD SVG 20010904//EN"
 "http://www.w3.org/TR/2001/REC-SVG-20010904/DTD/svg10.dtd">
<svg version="1.0" xmlns="http://www.w3.org/2000/svg"
 width="64.000000pt" height="64.000000pt" viewBox="0 0 64.000000 64.000000"
 preserveAspectRatio="xMidYMid meet">
<metadata>
Created by potrace 1.11, written by Peter Selinger 2001-2013
</metadata>
<g transform="translate(0.000000,64.000000) scale(0.100000,-0.100000)"
fill="#000000" stroke="none">
<path d="M559 633 c-1 -5 -1 -12 0 -17 1 -6 -1 -21 -4 -34 -5 -19 -9 -22 -18
-13 -15 15 -47 14 -47 -3 0 -23 30 -100 42 -107 19 -12 29 0 18 21 -14 26 -13
40 4 40 7 0 19 14 26 30 12 30 13 30 27 10 16 -23 33 -26 33 -7 0 36 -76 111
-81 80z"/>
<path d="M420 489 c0 -14 -5 -19 -14 -16 -8 3 -22 -2 -32 -12 -33 -32 -64 -71
-64 -81 0 -13 23 -13 37 1 7 7 14 1 22 -20 11 -26 38 -48 47 -38 2 2 -6 23
-18 46 -15 31 -19 48 -11 59 17 28 29 23 39 -15 5 -23 15 -38 24 -38 8 0 14 6
12 14 -4 21 19 42 39 36 21 -7 23 2 9 39 -6 16 -15 24 -23 20 -8 -3 -20 2 -27
11 -18 22 -40 19 -40 -6z"/>
<path d="M267 363 c-11 -19 -3 -71 15 -100 20 -34 38 -43 38 -20 0 7 16 21 35
30 24 11 33 21 29 32 -4 10 -11 12 -18 7 -6 -5 -19 -12 -28 -15 -15 -5 -16 -2
-7 20 5 14 8 27 7 28 -2 1 -13 7 -25 14 -25 13 -40 14 -46 4z m43 -37 c0 -3
-4 -8 -10 -11 -5 -3 -10 -1 -10 4 0 6 5 11 10 11 6 0 10 -2 10 -4z"/>
<path d="M194 282 c-24 -17 -6 -125 22 -136 13 -5 15 -1 12 16 -2 13 4 30 13
40 16 15 18 15 24 0 6 -16 7 -16 16 -1 9 18 -12 74 -24 62 -4 -3 -17 1 -30 10
-13 8 -28 12 -33 9z m36 -52 c0 -5 -5 -10 -11 -10 -5 0 -7 5 -4 10 3 6 8 10
11 10 2 0 4 -4 4 -10z"/>
<path d="M128 192 c15 -21 18 -32 10 -46 -9 -16 -10 -16 -23 0 -13 19 -45 28
-45 13 0 -5 -6 -9 -14 -9 -16 0 -56 -59 -56 -84 0 -18 30 -22 47 -5 21 21 34
6 19 -23 -18 -33 0 -51 21 -23 28 40 4 91 -37 77 -11 -4 -10 1 4 17 26 28 31
27 55 -15 22 -37 41 -38 41 0 0 29 10 39 26 25 23 -19 26 9 5 49 -19 36 -37
52 -62 52 -6 0 -1 -13 9 -28z"/>
</g>
</svg>
